<mxfile host="app.diagrams.net" modified="2021-09-19T09:54:12.930Z" agent="5.0 (Macintosh; Intel Mac OS X 10_15_7) AppleWebKit/605.1.15 (KHTML, like Gecko) Version/14.1.2 Safari/605.1.15" etag="j_DkWf6qzGig666aDRwv" version="15.2.9" type="github">
  <diagram id="C5RBs43oDa-KdzZeNtuy" name="Page-1">
    <mxGraphModel dx="946" dy="617" grid="1" gridSize="10" guides="1" tooltips="1" connect="1" arrows="1" fold="1" page="1" pageScale="1" pageWidth="827" pageHeight="1169" math="0" shadow="0">
      <root>
        <mxCell id="WIyWlLk6GJQsqaUBKTNV-0" />
        <mxCell id="WIyWlLk6GJQsqaUBKTNV-1" parent="WIyWlLk6GJQsqaUBKTNV-0" />
        <mxCell id="RTZkENGJLBiGMzuzW97P-1" value="marks.dat" style="strokeWidth=2;html=1;shape=mxgraph.flowchart.stored_data;whiteSpace=wrap;" vertex="1" parent="WIyWlLk6GJQsqaUBKTNV-1">
          <mxGeometry x="540" y="120" width="100" height="60" as="geometry" />
        </mxCell>
        <mxCell id="RTZkENGJLBiGMzuzW97P-5" value="" style="edgeStyle=orthogonalEdgeStyle;rounded=0;orthogonalLoop=1;jettySize=auto;html=1;" edge="1" parent="WIyWlLk6GJQsqaUBKTNV-1" source="RTZkENGJLBiGMzuzW97P-3" target="RTZkENGJLBiGMzuzW97P-4">
          <mxGeometry relative="1" as="geometry" />
        </mxCell>
        <mxCell id="RTZkENGJLBiGMzuzW97P-3" value="&lt;b&gt;START&lt;/b&gt;" style="strokeWidth=2;html=1;shape=mxgraph.flowchart.start_1;whiteSpace=wrap;" vertex="1" parent="WIyWlLk6GJQsqaUBKTNV-1">
          <mxGeometry x="350" y="40" width="100" height="60" as="geometry" />
        </mxCell>
        <mxCell id="RTZkENGJLBiGMzuzW97P-6" value="" style="edgeStyle=orthogonalEdgeStyle;rounded=0;orthogonalLoop=1;jettySize=auto;html=1;" edge="1" parent="WIyWlLk6GJQsqaUBKTNV-1" target="RTZkENGJLBiGMzuzW97P-1">
          <mxGeometry relative="1" as="geometry">
            <mxPoint x="461" y="140" as="sourcePoint" />
            <Array as="points">
              <mxPoint x="461" y="140" />
            </Array>
          </mxGeometry>
        </mxCell>
        <mxCell id="RTZkENGJLBiGMzuzW97P-10" value="" style="edgeStyle=orthogonalEdgeStyle;rounded=0;orthogonalLoop=1;jettySize=auto;html=1;" edge="1" parent="WIyWlLk6GJQsqaUBKTNV-1" source="RTZkENGJLBiGMzuzW97P-4" target="RTZkENGJLBiGMzuzW97P-9">
          <mxGeometry relative="1" as="geometry" />
        </mxCell>
        <mxCell id="RTZkENGJLBiGMzuzW97P-4" value="&lt;b&gt;READ&lt;/b&gt; data from marks.dat &amp;nbsp;" style="whiteSpace=wrap;html=1;strokeWidth=2;" vertex="1" parent="WIyWlLk6GJQsqaUBKTNV-1">
          <mxGeometry x="340" y="120" width="120" height="60" as="geometry" />
        </mxCell>
        <mxCell id="RTZkENGJLBiGMzuzW97P-7" value="" style="edgeStyle=orthogonalEdgeStyle;rounded=0;orthogonalLoop=1;jettySize=auto;html=1;" edge="1" parent="WIyWlLk6GJQsqaUBKTNV-1" source="RTZkENGJLBiGMzuzW97P-1">
          <mxGeometry relative="1" as="geometry">
            <mxPoint x="470.96000000000004" y="139" as="sourcePoint" />
            <mxPoint x="460" y="160" as="targetPoint" />
            <Array as="points">
              <mxPoint x="460" y="160" />
            </Array>
          </mxGeometry>
        </mxCell>
        <mxCell id="RTZkENGJLBiGMzuzW97P-23" value="" style="edgeStyle=orthogonalEdgeStyle;rounded=0;orthogonalLoop=1;jettySize=auto;html=1;" edge="1" parent="WIyWlLk6GJQsqaUBKTNV-1" source="RTZkENGJLBiGMzuzW97P-9" target="RTZkENGJLBiGMzuzW97P-22">
          <mxGeometry relative="1" as="geometry" />
        </mxCell>
        <mxCell id="RTZkENGJLBiGMzuzW97P-9" value="&lt;b&gt;INITIALISE&lt;/b&gt; &amp;nbsp;num_student,&lt;br&gt;num_courses, student_id" style="whiteSpace=wrap;html=1;strokeWidth=2;" vertex="1" parent="WIyWlLk6GJQsqaUBKTNV-1">
          <mxGeometry x="340" y="220" width="120" height="60" as="geometry" />
        </mxCell>
        <mxCell id="RTZkENGJLBiGMzuzW97P-34" value="" style="edgeStyle=orthogonalEdgeStyle;rounded=0;orthogonalLoop=1;jettySize=auto;html=1;" edge="1" parent="WIyWlLk6GJQsqaUBKTNV-1" source="RTZkENGJLBiGMzuzW97P-11" target="RTZkENGJLBiGMzuzW97P-33">
          <mxGeometry relative="1" as="geometry" />
        </mxCell>
        <mxCell id="RTZkENGJLBiGMzuzW97P-11" value="&lt;b&gt;OUTPUT&lt;/b&gt; num_student, num_courses, student_id" style="shape=parallelogram;perimeter=parallelogramPerimeter;whiteSpace=wrap;html=1;fixedSize=1;strokeWidth=2;" vertex="1" parent="WIyWlLk6GJQsqaUBKTNV-1">
          <mxGeometry x="340" y="420" width="120" height="60" as="geometry" />
        </mxCell>
        <mxCell id="RTZkENGJLBiGMzuzW97P-24" value="" style="edgeStyle=orthogonalEdgeStyle;rounded=0;orthogonalLoop=1;jettySize=auto;html=1;" edge="1" parent="WIyWlLk6GJQsqaUBKTNV-1" source="RTZkENGJLBiGMzuzW97P-22" target="RTZkENGJLBiGMzuzW97P-11">
          <mxGeometry relative="1" as="geometry" />
        </mxCell>
        <mxCell id="RTZkENGJLBiGMzuzW97P-22" value="&lt;b&gt;INITIALISE&lt;/b&gt;&lt;br&gt;course_mark,&lt;br&gt;mark_count" style="whiteSpace=wrap;html=1;strokeWidth=2;" vertex="1" parent="WIyWlLk6GJQsqaUBKTNV-1">
          <mxGeometry x="340" y="320" width="120" height="60" as="geometry" />
        </mxCell>
        <mxCell id="RTZkENGJLBiGMzuzW97P-36" value="" style="edgeStyle=orthogonalEdgeStyle;rounded=0;orthogonalLoop=1;jettySize=auto;html=1;" edge="1" parent="WIyWlLk6GJQsqaUBKTNV-1" source="RTZkENGJLBiGMzuzW97P-33" target="RTZkENGJLBiGMzuzW97P-35">
          <mxGeometry relative="1" as="geometry" />
        </mxCell>
        <mxCell id="RTZkENGJLBiGMzuzW97P-33" value="&lt;b&gt;STORE&lt;/b&gt; &lt;br&gt;course_mark in list" style="whiteSpace=wrap;html=1;strokeWidth=2;" vertex="1" parent="WIyWlLk6GJQsqaUBKTNV-1">
          <mxGeometry x="340" y="520" width="120" height="60" as="geometry" />
        </mxCell>
        <mxCell id="RTZkENGJLBiGMzuzW97P-35" value="" style="whiteSpace=wrap;html=1;strokeWidth=2;" vertex="1" parent="WIyWlLk6GJQsqaUBKTNV-1">
          <mxGeometry x="340" y="620" width="120" height="60" as="geometry" />
        </mxCell>
      </root>
    </mxGraphModel>
  </diagram>
</mxfile>
